<svg width="255" height="114" fill="none" xmlns="http://www.w3.org/2000/svg"><path d="M127.168 19.986c0-.817.606-1.477 1.516-1.477.873 0 1.52.56 1.52 1.477v4.324l4.984-5.242c.223-.242.608-.56 1.173-.56.77 0 1.501.583 1.501 1.44 0 .52-.326.938-.993 1.602l-3.827 3.717 4.676 4.822c.487.484.852.922.852 1.522 0 .941-.749 1.379-1.58 1.379-.587 0-.972-.337-1.541-.94l-5.245-5.598v5.098c0 .784-.607 1.44-1.52 1.44-.869 0-1.516-.558-1.516-1.44V19.986ZM140.046 20.37c0-1.003.506-1.745 1.58-1.745h5.022c.974 0 1.441.682 1.441 1.38 0 .679-.487 1.384-1.441 1.384h-3.562v2.922h3.32c.994 0 1.478.676 1.478 1.38 0 .68-.505 1.38-1.478 1.38h-3.32v3.043h3.746c.973 0 1.439.68 1.439 1.377 0 .683-.487 1.38-1.439 1.38h-5.228c-.89 0-1.558-.597-1.558-1.501v-11ZM151.407 20.048c.124-.72.913-1.54 1.985-1.54 1.014 0 1.805.72 2.028 1.44l2.388 7.923h.043l2.388-7.922c.222-.72 1.012-1.44 2.024-1.44 1.075 0 1.864.82 1.986 1.54l1.882 11.164c.023.12.023.236.023.338 0 .881-.65 1.44-1.457 1.44-1.033 0-1.44-.46-1.583-1.4l-1.193-8.142h-.04l-2.432 8.38c-.143.486-.526 1.161-1.621 1.161-1.092 0-1.479-.675-1.618-1.16l-2.433-8.381h-.04l-1.195 8.142c-.143.94-.546 1.4-1.58 1.4-.809 0-1.458-.559-1.458-1.44 0-.102 0-.217.02-.338l1.883-11.165ZM168.054 20.37c0-1.003.508-1.745 1.581-1.745h5.025c.974 0 1.438.682 1.438 1.38 0 .679-.488 1.384-1.438 1.384h-3.566v2.922h3.322c.989 0 1.478.676 1.478 1.38 0 .68-.506 1.38-1.478 1.38h-3.322v3.043h3.747c.973 0 1.438.68 1.438 1.377 0 .683-.486 1.38-1.438 1.38h-5.226c-.891 0-1.561-.597-1.561-1.501v-11ZM177.816 20.071c0-1.002.65-1.563 1.52-1.563.385 0 1.012.298 1.277.66l6.42 8.462h.042V20.07c0-1.002.647-1.563 1.516-1.563.874 0 1.522.56 1.522 1.563v11.362c0 1-.648 1.557-1.522 1.557-.384 0-.989-.299-1.275-.656l-6.421-8.364h-.04v7.463c0 1-.647 1.557-1.519 1.557-.87 0-1.52-.557-1.52-1.557V20.071ZM194.75 21.389h-2.208c-.972 0-1.377-.706-1.377-1.385 0-.697.505-1.38 1.377-1.38h7.453c.871 0 1.378.683 1.378 1.38 0 .68-.407 1.385-1.378 1.385h-2.207v10.044c0 .999-.649 1.557-1.522 1.557-.868 0-1.516-.558-1.516-1.557V21.39ZM202.546 20.37c0-1.003.506-1.745 1.582-1.745h5.02c.974 0 1.438.682 1.438 1.38 0 .679-.486 1.384-1.438 1.384h-3.563v2.922h3.322c.992 0 1.48.676 1.48 1.38 0 .68-.511 1.38-1.48 1.38h-3.322v3.043h3.746c.973 0 1.438.68 1.438 1.377 0 .683-.484 1.38-1.438 1.38h-5.227c-.89 0-1.558-.597-1.558-1.501v-11ZM215.468 24.932h2.084c1.115 0 1.887-.663 1.887-1.784 0-1.14-.772-1.76-1.887-1.76h-2.084v3.544Zm-3.038-4.745c0-.958.548-1.562 1.559-1.562h3.563c3.122 0 5.047 1.38 5.047 4.523 0 2.202-1.683 3.462-3.747 3.783l3.442 3.64c.285.297.406.6.406.878 0 .781-.628 1.542-1.521 1.542-.364 0-.85-.14-1.172-.523l-4.499-5.376h-.04v4.341c0 .999-.648 1.558-1.519 1.558-.872 0-1.519-.56-1.519-1.558V20.187ZM224.195 20.071c0-1.002.65-1.56 1.52-1.56.874 0 1.516.558 1.516 1.56v11.362c0 1-.642 1.557-1.516 1.557-.87 0-1.52-.557-1.52-1.557V20.071ZM233.127 27.313h3.849l-1.885-5.806h-.038l-1.926 5.806Zm-.221-7.265c.344-.919 1.134-1.662 2.167-1.662 1.073 0 1.823.705 2.169 1.662l3.971 10.883c.118.319.159.602.159.74 0 .78-.649 1.32-1.399 1.32-.851 0-1.275-.438-1.478-1.042l-.609-1.877h-5.629l-.608 1.862c-.202.619-.63 1.056-1.457 1.056-.812 0-1.5-.6-1.5-1.399 0-.323.102-.56.142-.66l4.072-10.883ZM242.706 20.071c0-1.002.648-1.56 1.519-1.56.386 0 1.014.295 1.276.657l6.421 8.462h.042V20.07c0-1.002.65-1.56 1.518-1.56.873 0 1.518.558 1.518 1.56v11.362c0 1-.645 1.557-1.518 1.557-.386 0-.991-.299-1.276-.656l-6.423-8.364h-.039v7.463c0 1-.647 1.557-1.519 1.557-.871 0-1.519-.557-1.519-1.557V20.071ZM127.168 40.546c0-.82.606-1.477 1.516-1.477.873 0 1.52.56 1.52 1.477v4.322l4.984-5.24c.223-.24.608-.56 1.173-.56.77 0 1.501.576 1.501 1.439 0 .517-.326.94-.993 1.601l-3.827 3.72 4.676 4.822c.487.48.852.92.852 1.522 0 .937-.749 1.376-1.58 1.376-.587 0-.972-.34-1.541-.94l-5.245-5.6v5.105c0 .78-.607 1.435-1.52 1.435-.869 0-1.516-.56-1.516-1.435V40.546ZM140.046 40.924c0-.995.506-1.74 1.58-1.74h5.022c.974 0 1.441.684 1.441 1.381 0 .68-.487 1.38-1.441 1.38h-3.562v2.923h3.32c.994 0 1.478.68 1.478 1.378 0 .681-.505 1.38-1.478 1.38h-3.32v3.042h3.746c.973 0 1.439.68 1.439 1.38 0 .68-.487 1.384-1.439 1.384h-5.228c-.89 0-1.558-.602-1.558-1.502V40.924ZM158.458 40.948c0 .776-.527 1.479-1.356 1.479-.834 0-1.479-.6-2.696-.6-.87 0-1.66.463-1.66 1.3 0 2.057 6.766.739 6.766 5.902 0 2.86-2.392 4.643-5.186 4.643-1.56 0-4.923-.366-4.923-2.24 0-.783.526-1.421 1.357-1.421.953 0 2.087.78 3.404.78 1.337 0 2.065-.737 2.065-1.725 0-2.36-6.765-.937-6.765-5.576 0-2.803 2.329-4.544 5.023-4.544 1.136 0 3.971.418 3.971 2.002M161.312 40.924c0-.995.506-1.74 1.579-1.74h5.024c.974 0 1.436.684 1.436 1.381 0 .68-.485 1.38-1.436 1.38h-3.563v2.923h3.322c.991 0 1.474.68 1.474 1.378 0 .681-.505 1.38-1.474 1.38h-3.322v3.042h3.745c.971 0 1.438.68 1.438 1.38 0 .68-.486 1.384-1.438 1.384h-5.226c-.891 0-1.559-.602-1.559-1.502V40.924ZM171.194 40.621c0-.992.65-1.552 1.52-1.552.871 0 1.521.56 1.521 1.552v4.246h6.359v-4.246c0-.992.648-1.552 1.518-1.552.872 0 1.519.56 1.519 1.552V51.99c0 .998-.647 1.558-1.519 1.558-.87 0-1.518-.56-1.518-1.558v-4.364h-6.359v4.364c0 .998-.65 1.558-1.521 1.558-.87 0-1.52-.56-1.52-1.558V40.62ZM189.522 47.87h3.85l-1.884-5.803h-.041l-1.925 5.802Zm-.222-7.264c.345-.921 1.135-1.66 2.168-1.66 1.074 0 1.822.698 2.166 1.66l3.972 10.882c.122.321.16.6.16.742 0 .78-.647 1.318-1.395 1.318-.851 0-1.28-.44-1.48-1.037l-.608-1.883h-5.631l-.609 1.858c-.201.623-.625 1.062-1.456 1.062-.811 0-1.499-.598-1.499-1.398 0-.322.101-.56.14-.662l4.072-10.882ZM199.797 41.945h-2.209c-.974 0-1.377-.7-1.377-1.38 0-.697.505-1.38 1.377-1.38h7.456c.868 0 1.377.682 1.377 1.38 0 .68-.406 1.38-1.377 1.38h-2.209V51.99c0 .999-.649 1.56-1.522 1.56-.867 0-1.516-.561-1.516-1.56V41.945ZM209.298 47.87h3.847l-1.881-5.803h-.042l-1.924 5.802Zm-.222-7.264c.345-.921 1.136-1.66 2.168-1.66 1.072 0 1.822.696 2.166 1.66l3.971 10.882c.121.321.16.6.16.742 0 .78-.647 1.318-1.398 1.318-.851 0-1.276-.44-1.477-1.037l-.608-1.883h-5.63l-.607 1.858c-.204.623-.631 1.062-1.458 1.062-.812 0-1.502-.598-1.502-1.398 0-.322.103-.56.144-.662l4.071-10.882ZM218.877 40.621c0-.992.647-1.552 1.518-1.552.388 0 1.014.294 1.276.657l6.422 8.464h.041v-7.569c0-.992.646-1.552 1.52-1.552.868 0 1.519.56 1.519 1.552V51.99c0 .998-.651 1.558-1.519 1.558-.387 0-.993-.296-1.279-.656l-6.419-8.364h-.042v7.462c0 .998-.647 1.558-1.519 1.558-.871 0-1.518-.56-1.518-1.558V40.62ZM130.203 66.044h2.089c1.112 0 1.882-.659 1.882-1.778 0-1.14-.77-1.76-1.882-1.76h-2.089v3.538Zm-3.035-4.743c0-.951.546-1.558 1.556-1.558h3.568c3.119 0 5.042 1.382 5.042 4.523 0 2.202-1.68 3.458-3.745 3.78l3.442 3.64c.285.3.405.602.405.879 0 .786-.627 1.547-1.52 1.547-.364 0-.849-.146-1.172-.524l-4.498-5.381h-.043v4.34c0 .995-.646 1.565-1.52 1.565-.869 0-1.515-.57-1.515-1.566V61.301ZM138.933 61.482c0-.998.507-1.74 1.58-1.74h5.024c.969 0 1.436.68 1.436 1.383 0 .678-.487 1.382-1.436 1.382h-3.566v2.921h3.322c.992 0 1.479.673 1.479 1.38 0 .68-.505 1.38-1.479 1.38h-3.322v3.037h3.748c.971 0 1.437.681 1.437 1.382 0 .68-.486 1.38-1.437 1.38h-5.226c-.89 0-1.56-.6-1.56-1.495v-11.01ZM151.852 66.626h2.069c1.276 0 2.086-.919 2.086-2.12 0-1.204-.81-2.123-2.086-2.123h-2.069v4.243Zm-3.037-5.325c0-.938.568-1.558 1.583-1.558h3.582c2.979 0 5.187 1.92 5.187 4.783 0 2.923-2.288 4.74-5.064 4.74h-2.251v3.28c0 .996-.646 1.566-1.517 1.566-.871 0-1.52-.57-1.52-1.566V61.3ZM160.461 61.19c0-1.007.647-1.565 1.52-1.565.87 0 1.52.558 1.52 1.566v6.977c0 1.838 1.196 3.297 3.118 3.297 1.843 0 3.101-1.537 3.101-3.297V61.19c0-1.008.647-1.566 1.517-1.566.87 0 1.521.558 1.521 1.566v7.135c0 3.36-2.798 5.899-6.139 5.899-3.381 0-6.158-2.498-6.158-5.899v-7.135ZM178.001 71.346h2.39c1.094 0 1.903-.62 1.903-1.74 0-.934-.728-1.58-2.147-1.58h-2.146v3.32Zm0-5.96h1.58c.993 0 1.64-.58 1.64-1.584 0-.938-.748-1.42-1.64-1.42h-1.58v3.003Zm-3.04-4.143c0-.959.67-1.5 1.602-1.5h3.888c2.109 0 3.809 1.405 3.809 3.523 0 1.4-.589 2.339-1.883 2.937v.039c1.72.243 3.077 1.663 3.077 3.403 0 2.82-1.902 4.342-4.697 4.342h-4.174c-.931 0-1.622-.58-1.622-1.522V61.243ZM187.092 61.19c0-1.007.651-1.565 1.52-1.565.873 0 1.52.558 1.52 1.566v10.033h3.605c1.032 0 1.479.762 1.458 1.442-.039.664-.566 1.32-1.458 1.32h-5.065c-.992 0-1.58-.636-1.58-1.638V61.191ZM196.226 61.19c0-1.007.647-1.565 1.518-1.565.875 0 1.523.558 1.523 1.566v11.355c0 .996-.648 1.566-1.523 1.566-.871 0-1.518-.57-1.518-1.566V61.19ZM201.595 61.104c0-.82.609-1.48 1.519-1.48.87 0 1.519.559 1.519 1.48v4.324l4.982-5.245c.224-.237.607-.558 1.178-.558.766 0 1.498.577 1.498 1.436 0 .52-.327.946-.993 1.602l-3.828 3.722 4.677 4.825c.489.476.85.922.85 1.517 0 .943-.75 1.385-1.577 1.385-.588 0-.973-.34-1.54-.944l-5.247-5.604v5.1c0 .78-.608 1.448-1.519 1.448-.871 0-1.519-.57-1.519-1.447v-11.56ZM127.168 81.741c0-1.001.647-1.556 1.516-1.556.873 0 1.52.555 1.52 1.556v11.361c0 1.004-.647 1.564-1.52 1.564-.869 0-1.516-.56-1.516-1.564v-11.36ZM132.412 81.741c0-1.001.649-1.556 1.519-1.556.385 0 1.012.296 1.273.655l6.425 8.467h.038V81.74c0-1.001.649-1.556 1.52-1.556.873 0 1.518.555 1.518 1.556v11.361c0 1.004-.645 1.564-1.518 1.564-.382 0-.99-.3-1.275-.662l-6.421-8.362h-.042v7.46c0 1.004-.648 1.564-1.518 1.564s-1.519-.56-1.519-1.564v-11.36ZM149.949 91.783h2.047c2.611 0 3.808-1.897 3.808-4.295 0-2.568-1.214-4.425-4.011-4.425h-1.844v8.72Zm-3.038-9.94c0-.92.65-1.542 1.561-1.542h3.36c4.538 0 7.132 2.88 7.132 7.325 0 4.2-2.753 6.92-6.928 6.92h-3.525c-.669 0-1.6-.36-1.6-1.502V81.842ZM171.136 87.423c0-2.423-1.279-4.604-3.808-4.604-2.532 0-3.81 2.18-3.81 4.604 0 2.44 1.236 4.604 3.81 4.604 2.572 0 3.808-2.164 3.808-4.604Zm-10.778 0c0-4.158 2.837-7.366 6.97-7.366 4.07 0 6.967 3.307 6.967 7.366 0 4.142-2.815 7.364-6.967 7.364-4.113 0-6.97-3.222-6.97-7.364ZM175.932 81.741c0-1.001.648-1.556 1.522-1.556.382 0 1.011.296 1.275.655l6.42 8.467h.04V81.74c0-1.001.647-1.556 1.52-1.556.872 0 1.522.555 1.522 1.556v11.361c0 1.004-.65 1.564-1.522 1.564-.385 0-.992-.3-1.275-.662l-6.422-8.362h-.039v7.46c0 1.004-.651 1.564-1.519 1.564-.874 0-1.522-.56-1.522-1.564v-11.36ZM190.433 82.044c0-1.004.51-1.743 1.582-1.743h5.023c.973 0 1.437.683 1.437 1.38 0 .685-.484 1.382-1.437 1.382h-3.564v2.92h3.319c.995 0 1.48.68 1.48 1.378 0 .685-.507 1.382-1.48 1.382h-3.319v3.04h3.745c.972 0 1.437.684 1.437 1.382 0 .684-.485 1.38-1.437 1.38h-5.225c-.892 0-1.561-.598-1.561-1.5v-11ZM208.844 82.065c0 .778-.525 1.476-1.357 1.476-.827 0-1.476-.598-2.691-.598-.873 0-1.663.46-1.663 1.3 0 2.062 6.766.742 6.766 5.9 0 2.864-2.392 4.643-5.188 4.643-1.557 0-4.92-.36-4.92-2.244 0-.777.525-1.415 1.357-1.415.95 0 2.087.775 3.402.775 1.338 0 2.069-.736 2.069-1.713 0-2.36-6.768-.947-6.768-5.585 0-2.804 2.329-4.547 5.023-4.547 1.137 0 3.97.425 3.97 2.008M211.7 81.741c0-1.001.648-1.556 1.517-1.556.874 0 1.521.555 1.521 1.556v11.361c0 1.004-.647 1.564-1.521 1.564-.869 0-1.517-.56-1.517-1.564v-11.36ZM220.63 88.981h3.849l-1.883-5.8h-.041l-1.925 5.8Zm-.221-7.257c.345-.923 1.135-1.667 2.166-1.667 1.075 0 1.824.705 2.169 1.667l3.968 10.878c.121.321.162.602.162.745 0 .775-.647 1.32-1.395 1.32-.853 0-1.279-.442-1.479-1.046l-.612-1.873h-5.628l-.609 1.86c-.201.617-.627 1.059-1.457 1.059-.808 0-1.499-.604-1.499-1.401 0-.322.102-.562.143-.664l4.071-10.878Z" fill="#fff"/><path d="M102.569 70.814a16.589 16.589 0 0 1 4.973 11.894c0 4.513-1.766 8.739-4.967 11.905-3.202 3.167-7.48 4.917-12.053 4.917-4.56-.007-8.842-1.748-12.045-4.908l-.085-.08V59.064h11.574l12.603 11.749Z" fill="#D2DC00"/><path d="m75.999 95.803.079.071c-.033 9.986-8.269 18.105-18.379 18.126-9.303 0-17.135-6.883-18.236-16.001V59.76l31.54 31.1 4.996 4.942Z" fill="#00B1A9"/><path d="M75.12 59.065v31.571l-32.01-31.57h32.01Z" fill="#D2DC00"/><path d="M36.053 38.858v36.29H18.368C8.258 75.132.02 66.982 0 56.994c.02-9.98 8.259-18.12 18.368-18.135h17.685Z" fill="#00B1A9"/><path d="M102.528 19.575c3.208 3.172 4.976 7.422 4.976 11.974 0 4.472-1.76 8.68-4.955 11.837L89.965 55.15H78.393V19.628l.03-.03c3.206-3.172 7.49-4.923 12.068-4.923 4.561 0 8.835 1.75 12.037 4.9M75.12 23.538v31.613H43.164L75.12 23.538Z" fill="#D2DC00"/><path d="M76.078 17.479v.82l-.08.073-36.534 35.472v-37.84C40.564 6.877 48.396 0 57.699 0h.007c10.11.02 18.352 7.488 18.372 17.479Z" fill="#00B1A9"/></svg>